<?xml version="1.0" encoding="UTF-8"?>
<svg id="_Слой_1" data-name="Слой_1" xmlns="http://www.w3.org/2000/svg" version="1.1" viewBox="0 0 1000 1000">
  <!-- Generator: Adobe Illustrator 30.5.1, SVG Export Plug-In . SVG Version: 2.1.4 Build 3)  -->
  <defs>
    <style>
      .st0 {
        fill: #fff;
      }

      .st1 {
        fill: #202022;
      }
    </style>
  </defs>
  <path class="st1" d="M497.95,1000h4.1c198.56,0,313.74-20.16,395.42-99.11,83.39-84.07,102.53-200.27,102.53-398.15v-5.47c0-197.88-19.14-313.06-102.53-398.15C816.13,20.16,699.93,0,502.05,0h-4.1C299.38,0,184.21,20.16,102.53,99.11,19.14,183.53,0,299.38,0,497.27v5.47c0,197.88,19.14,313.06,102.53,398.15,81,79.29,196.86,99.11,395.42,99.11Z"/>
  <path class="st0" d="M881.07,492.48c0-3.76-3.08-6.84-6.84-7.18-136.71-5.13-219.75-22.56-278.2-80.66-58.44-58.44-75.87-141.49-81-278.54,0-3.76-3.42-6.84-7.18-6.84h-15.72c-3.76,0-6.84,3.08-7.18,6.84-5.13,137.05-22.56,220.44-81,278.54-58.1,58.1-141.49,75.53-278.2,80.66-3.76,0-6.84,3.42-6.84,7.18v16.06c0,3.76,3.08,6.84,6.84,7.18,136.71,5.13,219.75,22.56,278.2,80.66s75.53,141.15,80.66,277.85c0,3.76,3.42,6.84,7.18,6.84h16.06c3.76,0,6.84-3.08,7.18-6.84,5.13-136.36,22.56-219.41,80.66-277.85,58.1-58.1,141.49-75.53,278.2-80.66,3.76,0,6.84-3.42,6.84-7.18l.34-16.06h0Z"/>
</svg>