<?xml version="1.0" encoding="UTF-8"?>
<svg id="Layer_1" xmlns="http://www.w3.org/2000/svg" version="1.1" viewBox="0 0 442 764.58">
  <!-- Generator: Adobe Illustrator 30.5.1, SVG Export Plug-In . SVG Version: 2.1.4 Build 3)  -->
  <path d="M301.14,555.53c43.42-10.07,81.74-26.44,116.17-48.35l-1.5.89c15.86-10.48,26.18-28.25,26.18-48.42,0-31.95-25.9-57.85-57.85-57.85-11.09,0-21.44,3.12-30.23,8.5l.25-.16c-37.71,23.92-83.62,38.1-132.83,38.1s-95.15-14.21-133.85-38.7l1.02.61c-8.73-5.57-19.37-8.89-30.8-8.89-20.45,0-38.42,10.64-48.7,26.66l-.13.22v.16c-5.57,8.73-8.89,19.37-8.89,30.8,0,20.48,10.67,38.45,26.73,48.7l.22.13c32.94,21.06,71.26,37.4,112.19,46.92l2.48.48-110.5,110.37c-10.58,10.42-17.14,24.88-17.14,40.9s6.21,29.69,16.25,40.01l.96.96c10.38,10.42,24.75,16.85,40.61,16.85s30.23-6.43,40.61-16.85l108.97-108.43,108.3,108.49c10.45,10.45,24.91,16.95,40.87,16.95,31.92,0,57.78-25.87,57.78-57.78,0-15.96-6.47-30.39-16.91-40.87l-110.25-110.4h-.03ZM221.35,394.6c108.88-.1,197.11-88.39,197.11-197.3S330.13,0,221.16,0,23.86,88.33,23.86,197.3v.19c.22,108.91,88.55,197.11,197.49,197.11ZM221.35,115.63c45.14,0,81.7,36.57,81.7,81.7s-36.57,81.7-81.7,81.7-81.64-36.5-81.7-81.58v-.06c0-45.14,36.57-81.74,81.7-81.77h0Z"/>
</svg>