<?xml version="1.0" encoding="UTF-8"?>
<svg id="Layer_1" xmlns="http://www.w3.org/2000/svg" version="1.1" viewBox="0 0 787 457.74">
  <!-- Generator: Adobe Illustrator 30.5.1, SVG Export Plug-In . SVG Version: 2.1.4 Build 3)  -->
  <path d="M476.55,220.18c-14.39-5.41-14.39-26.08-15.28-40.47-3.6-51.26,14.39-129.52-7.2-162.79C438.79-2.87,365.02-1.06,320.07,1.64c-12.61,1.81-27.89,4.49-38.68,9.9-10.79,5.41-21.59,14.39-21.59,22.48,0,11.69,27,9.9,36.87,25.18,10.79,16.2,10.79,51.26,10.79,80.04,0,33.27-5.41,77.36-18.88,79.15-20.69.89-32.38-19.8-43.17-35.08-21.59-29.67-43.17-66.57-59.38-102.55-8.09-18.88-12.61-39.57-24.29-47.66-17.99-12.61-50.37-13.5-81.85-12.61-28.78.89-70.17-2.71-78.26,14.39-6.3,18.88,7.2,36.87,14.39,52.18,36.87,80.04,76.44,150.21,125.03,216.75,44.99,62.05,87.24,111.53,169.98,137.6,23.4,7.2,125.92,27.89,146.61,0,7.2-10.79,5.41-35.08,9.01-53.07s8.09-35.98,25.18-36.87c14.39-.89,22.48,11.69,31.49,20.69,9.9,9.9,17.99,17.99,25.18,27,17.1,17.1,35.08,40.47,56.67,49.48,29.67,12.61,75.55,9.01,118.72,7.2,35.08-.89,60.27-8.09,62.97-28.78,1.81-16.2-16.2-39.57-27-53.07-27-33.27-39.57-43.17-70.17-73.77-13.5-13.5-30.59-27.89-30.59-44.06-.89-9.9,7.2-18.88,14.39-28.78,31.49-46.77,62.97-80.04,91.75-128.62,8.09-14.39,27-47.66,19.8-63.87-8.09-17.99-53.07-12.61-80.96-12.61-35.98,0-82.75-2.71-91.75,4.49-17.1,11.69-24.29,30.59-32.38,48.58-17.99,41.39-42.28,83.64-67.46,115.13-9.01,10.79-26.08,33.27-35.98,29.67l.03.03Z"/>
</svg>